<?xml version="1.0" standalone="no"?>
<!DOCTYPE svg PUBLIC "-//W3C//DTD SVG 20010904//EN"
 "http://www.w3.org/TR/2001/REC-SVG-20010904/DTD/svg10.dtd">
<svg version="1.0" xmlns="http://www.w3.org/2000/svg"
 width="300.000000pt" height="300.000000pt" viewBox="0 0 300.000000 300.000000"
 preserveAspectRatio="xMidYMid meet">
<metadata>
Created by potrace 1.11, written by Peter Selinger 2001-2013
</metadata>
<g transform="translate(0.000000,300.000000) scale(0.100000,-0.100000)"
fill="#000000" stroke="none">
<path d="M1654 2906 c4 -10 1 -25 -5 -32 -7 -9 -8 -14 -1 -14 16 0 23 30 11
48 -9 15 -10 15 -5 -2z"/>
<path d="M1080 2896 c-6 -8 -21 -17 -33 -19 -18 -3 -16 -5 6 -6 16 0 26 -5 23
-10 -4 -5 4 -6 16 -3 19 5 20 7 6 10 -14 3 -16 7 -8 23 13 22 7 25 -10 5z"/>
<path d="M1124 2889 c0 -10 4 -19 8 -19 4 0 8 6 8 14 0 8 -4 17 -8 20 -4 2 -8
-4 -8 -15z"/>
<path d="M1571 2888 c12 -22 21 -24 13 -3 -4 8 -2 15 4 15 14 0 24 -32 13 -43
-10 -10 -91 0 -91 12 0 10 -263 12 -285 2 -11 -6 -46 -15 -77 -21 -32 -6 -58
-16 -58 -21 0 -5 -3 -8 -7 -7 -12 4 -93 -35 -93 -44 0 -4 -15 -14 -32 -22 -18
-7 -50 -30 -71 -51 -21 -20 -44 -35 -50 -32 -7 3 -14 -3 -14 -14 -1 -11 -22
-43 -47 -72 -24 -29 -47 -64 -51 -79 -4 -15 -15 -34 -26 -44 -10 -9 -19 -25
-19 -36 0 -10 -5 -18 -12 -18 -6 0 -8 -3 -5 -7 4 -3 1 -16 -7 -28 -8 -12 -18
-38 -21 -58 -4 -20 -13 -41 -21 -48 -17 -14 -19 -137 -3 -224 6 -33 12 -70 13
-82 0 -13 4 -23 9 -23 4 0 7 -6 7 -14 0 -15 50 -115 88 -176 24 -39 43 -66 85
-118 15 -19 27 -39 27 -43 0 -5 3 -8 8 -7 14 3 47 -16 60 -34 7 -10 19 -18 27
-18 8 0 18 -6 22 -13 4 -7 24 -19 43 -27 19 -8 38 -19 42 -26 4 -6 24 -15 43
-18 19 -4 35 -12 35 -18 0 -6 10 -8 24 -4 14 3 27 2 30 -3 8 -12 105 -36 136
-33 14 1 34 -2 45 -7 11 -5 67 -14 124 -19 59 -6 107 -16 111 -23 4 -6 12 -9
18 -5 5 3 12 0 15 -8 3 -8 -2 -16 -15 -19 -11 -3 -17 -10 -13 -16 4 -8 11 -6
21 4 23 23 47 19 41 -6 -4 -15 -2 -19 8 -15 8 3 23 -6 34 -21 16 -19 18 -30
10 -44 -6 -12 -6 -19 0 -19 5 0 11 7 13 16 2 12 11 9 38 -17 19 -19 35 -36 34
-39 -1 -3 10 -23 24 -45 14 -22 29 -55 34 -75 12 -50 -1 -198 -19 -216 -8 -7
-10 -14 -4 -14 6 0 11 -7 11 -15 0 -8 -4 -15 -9 -15 -5 0 -12 -12 -15 -28 -22
-87 -122 -230 -154 -217 -7 2 -11 1 -8 -4 14 -22 -95 -77 -182 -92 -109 -17
-296 -5 -313 22 -4 6 -12 8 -18 4 -7 -4 -17 -2 -24 3 -7 5 -21 12 -32 15 -11
3 70 5 180 5 110 1 208 4 217 7 31 12 8 35 -34 35 -60 0 -106 26 -128 73 -18
38 -20 63 -20 324 0 265 1 286 20 323 11 22 27 40 34 40 8 0 16 5 18 11 5 16
85 24 103 9 9 -7 18 -10 22 -6 3 3 1 6 -5 6 -12 0 -5 31 9 40 5 4 -392 4 -533
0 -10 0 -18 -7 -18 -15 0 -11 11 -15 41 -15 27 0 38 -4 33 -11 -4 -7 0 -9 14
-5 26 9 80 -55 83 -98 3 -44 2 -524 -1 -563 -1 -18 -6 -33 -11 -33 -5 0 -9 -6
-9 -13 0 -21 -43 -56 -78 -63 -22 -4 -40 -1 -57 10 -14 9 -25 14 -25 11 0 -3
-6 -1 -13 5 -39 33 -91 70 -98 70 -4 0 -26 18 -48 41 -35 36 -39 44 -30 67 6
15 16 30 22 34 16 10 17 256 1 266 -16 10 -34 70 -28 90 4 12 3 13 -3 5 -7
-10 -17 -3 -38 25 -31 42 -128 125 -150 130 -18 4 -20 19 -2 25 9 4 9 6 0 6
-6 1 -15 -4 -18 -9 -4 -7 -13 -7 -26 0 -10 6 -19 7 -19 3 0 -4 -4 -3 -8 3 -22
35 -412 52 -412 19 0 -12 20 -15 114 -15 63 0 118 -4 121 -10 3 -5 19 -7 35
-3 18 3 30 1 30 -5 0 -6 13 -13 30 -17 31 -7 105 -74 115 -106 4 -10 10 -19
15 -19 5 0 15 -27 22 -60 6 -33 15 -60 18 -60 3 0 6 -35 7 -77 1 -65 -1 -74
-10 -53 -6 14 -16 28 -22 32 -5 4 -6 8 -1 8 5 0 3 7 -4 15 -19 22 -41 138 -28
146 5 4 -2 7 -16 7 -23 0 -26 -4 -26 -37 0 -20 6 -43 12 -49 10 -10 10 -17 0
-32 -10 -16 -10 -20 2 -20 9 0 16 -16 20 -43 4 -23 13 -55 21 -71 37 -71 39
-148 3 -190 -4 -6 -18 -26 -31 -45 -12 -20 -46 -47 -77 -64 -52 -28 -63 -30
-202 -34 -136 -5 -148 -7 -148 -24 0 -18 10 -19 153 -19 84 0 157 4 162 9 14
12 95 21 95 10 0 -5 8 -9 18 -8 10 0 12 3 5 6 -20 8 -15 23 7 23 11 0 20 5 20
11 0 6 7 9 15 5 8 -3 15 -1 15 4 0 5 11 12 24 16 14 3 27 12 30 20 7 18 56 19
56 1 0 -8 11 -24 25 -37 14 -13 25 -29 25 -36 0 -8 6 -11 17 -7 13 5 15 2 10
-16 -3 -13 -3 -20 0 -17 4 3 32 -19 64 -49 32 -30 65 -55 74 -55 10 0 15 -6
12 -13 -3 -8 4 -14 16 -15 12 0 28 -9 35 -19 7 -10 14 -17 15 -15 1 2 19 -4
39 -12 21 -9 42 -16 48 -16 5 0 10 -4 10 -9 0 -4 21 -14 48 -21 26 -7 52 -16
57 -19 6 -3 33 -13 60 -22 40 -13 50 -21 49 -38 -1 -19 1 -20 16 -6 9 8 22 15
28 15 18 0 14 -18 -5 -24 -14 -4 -14 -4 2 -3 11 1 26 -2 33 -6 14 -10 32 -1
32 16 0 7 -4 6 -10 -3 -9 -13 -11 -13 -20 0 -12 19 -13 33 -1 25 5 -3 12 -1
15 4 3 5 54 12 113 16 85 5 120 13 163 33 30 14 57 29 58 34 2 4 8 8 13 8 6 0
30 9 54 20 42 19 155 133 155 156 0 7 7 15 16 18 9 3 14 12 11 20 -3 8 5 19
19 27 13 7 28 26 33 43 4 17 13 30 18 29 6 -1 18 32 27 74 9 42 22 83 27 90
18 21 33 250 20 293 -6 21 -11 54 -11 74 0 21 -5 36 -12 36 -6 0 -8 3 -5 6 4
4 -2 19 -12 33 -10 14 -16 32 -14 39 3 6 -2 12 -11 12 -9 0 -16 8 -16 19 0 11
-4 23 -10 26 -16 10 -11 25 8 25 29 0 91 -48 112 -88 11 -20 24 -44 29 -52 15
-26 35 -75 33 -83 -1 -4 2 -7 6 -7 5 0 14 -18 21 -40 6 -22 17 -40 22 -40 6 0
9 -7 5 -15 -3 -8 -1 -15 4 -15 6 0 10 -5 10 -12 0 -7 17 -48 39 -93 75 -155
111 -235 111 -245 0 -5 4 -10 9 -10 4 0 14 -20 21 -45 7 -25 16 -45 21 -45 5
0 11 -11 15 -25 7 -30 34 -34 34 -5 0 11 4 20 8 20 5 0 17 25 27 55 11 30 22
55 26 55 3 0 12 20 19 45 7 25 17 45 22 45 5 0 6 4 3 10 -3 5 -2 10 2 10 5 0
15 20 22 45 7 25 17 45 21 45 4 0 13 20 20 45 7 24 16 42 21 39 5 -3 6 2 3 10
-4 10 -1 16 9 16 9 0 19 5 23 12 5 7 3 8 -6 3 -15 -10 -7 19 26 91 13 28 24
56 24 62 0 7 4 12 9 12 5 0 15 17 22 37 15 46 123 158 144 149 8 -3 17 -1 21
5 3 6 12 8 20 5 9 -3 14 2 14 14 0 22 8 22 -214 21 -71 -1 -131 -2 -132 -4 -9
-9 -12 -67 -4 -72 6 -3 7 1 4 10 -4 11 -2 14 9 9 8 -3 18 0 23 7 4 7 3 10 -2
6 -6 -3 -16 -2 -24 4 -11 6 -8 9 13 9 15 0 27 -5 27 -11 0 -5 5 -7 11 -3 6 3
15 0 20 -7 13 -21 11 -29 -7 -29 -9 0 -12 5 -8 12 4 7 3 8 -4 4 -6 -4 -9 -13
-6 -21 5 -11 11 -12 26 -4 25 14 47 -13 48 -57 0 -37 -9 -48 -27 -33 -9 9 -13
8 -13 0 0 -6 5 -11 11 -11 12 0 8 -26 -12 -77 -6 -15 -10 -29 -9 -31 0 -1 -6
-9 -14 -18 -8 -8 -18 -30 -22 -49 -3 -19 -10 -35 -14 -35 -5 0 -16 -24 -26
-52 -9 -29 -20 -55 -23 -58 -4 -3 -12 -18 -19 -33 l-12 -29 -20 24 c-11 12
-19 17 -20 11 0 -7 5 -13 10 -13 6 0 10 -6 10 -14 0 -8 4 -16 9 -18 5 -1 -1
-23 -13 -47 l-23 -44 -13 47 c-7 25 -16 46 -19 46 -4 0 -15 24 -26 53 -10 28
-21 54 -25 57 -4 3 -15 29 -24 58 -10 28 -21 52 -26 52 -15 0 -20 45 -6 55 8
6 10 17 5 30 -7 19 -8 19 -8 -2 -1 -25 -21 -32 -21 -8 0 8 -4 15 -9 15 -5 0
-17 22 -26 50 -9 27 -20 52 -25 55 -4 3 -11 24 -15 46 -6 37 -4 44 20 65 21
18 40 24 77 24 41 0 48 3 48 20 0 12 5 17 14 14 8 -3 17 -1 21 5 3 7 0 8 -9 5
-10 -4 -16 -1 -16 7 -1 10 -3 9 -10 -3 -9 -14 -38 -16 -251 -16 l-241 -1 -27
29 c-14 16 -46 51 -70 79 -24 27 -57 55 -73 62 -15 6 -28 16 -28 21 0 6 -7 7
-16 4 -10 -4 -14 -1 -11 6 2 8 19 12 43 11 l39 -2 -33 10 c-23 7 -38 7 -46 0
-14 -12 -56 -3 -56 11 0 5 -6 8 -12 7 -7 -1 -24 2 -38 8 -46 21 -65 26 -79 24
-8 -1 -17 2 -20 7 -3 5 -62 15 -131 22 -69 6 -128 16 -131 22 -4 6 -12 7 -18
4 -6 -4 -11 -2 -11 3 0 6 -12 11 -28 11 -34 0 -87 15 -104 29 -7 6 -30 25 -50
42 l-36 31 26 24 c15 13 21 24 15 24 -7 0 -13 -4 -13 -10 0 -5 -10 -14 -21
-21 -17 -9 -25 -8 -37 5 -13 12 -13 18 -2 30 8 11 9 16 1 16 -6 0 -11 -4 -11
-10 0 -5 -4 -10 -10 -10 -5 0 -10 7 -10 15 0 8 -8 19 -19 24 -23 13 -37 55
-15 47 9 -3 12 -1 9 5 -4 5 -16 7 -27 3 -16 -5 -20 -3 -15 9 3 8 0 18 -8 20
-7 3 -16 24 -20 46 -4 23 -11 41 -16 41 -11 0 -12 157 0 164 4 3 11 23 13 43
3 21 17 55 31 76 14 21 28 51 32 67 4 17 10 30 15 30 4 0 13 13 19 28 7 16 25
40 42 53 16 13 39 32 51 42 12 10 28 15 35 12 8 -2 11 0 8 5 -3 6 0 10 8 10 8
0 20 7 27 15 7 9 15 13 18 11 2 -3 17 1 33 9 15 8 37 15 49 15 11 0 20 3 20 8
0 4 41 7 90 8 50 0 90 -3 90 -8 0 -4 9 -8 20 -8 11 0 37 -7 58 -17 20 -9 57
-23 82 -32 27 -10 49 -25 56 -39 8 -16 13 -19 16 -10 3 9 14 3 34 -19 16 -18
34 -33 41 -33 7 0 13 -4 13 -10 0 -5 8 -17 19 -27 17 -17 31 -66 35 -119 0
-13 6 -19 14 -17 13 6 17 -36 5 -53 -5 -5 -1 -1 9 8 19 21 34 23 41 5 3 -8 27
-24 54 -37 26 -12 52 -28 56 -36 4 -8 14 -14 22 -14 8 0 18 -7 23 -15 4 -9 29
-22 55 -30 41 -12 47 -12 47 0 0 9 -9 15 -21 15 -12 0 -40 15 -63 33 -53 42
-118 76 -133 70 -7 -3 -13 2 -13 10 0 8 -10 17 -22 21 -18 4 -20 8 -10 18 17
17 15 33 -3 18 -12 -10 -15 -10 -15 3 0 8 6 18 13 21 6 3 -1 2 -17 -1 -27 -5
-29 -4 -24 20 3 15 1 24 -3 21 -5 -3 -9 6 -9 20 0 21 5 26 24 26 14 0 28 -4
31 -10 3 -5 15 -10 26 -10 11 0 30 -11 43 -25 13 -14 28 -25 33 -25 5 0 34
-22 64 -50 85 -78 88 -80 110 -80 19 0 20 -4 15 -32 -11 -59 -13 -108 -5 -102
5 3 9 -5 9 -18 0 -29 35 -55 44 -32 8 21 8 20 -10 39 -16 16 -26 75 -13 75 4
0 6 8 4 18 -2 9 -9 45 -16 80 -6 34 -16 62 -21 62 -5 0 -6 5 -3 10 10 17 35
12 28 -6 -5 -14 -3 -14 16 -2 17 10 18 14 6 16 -8 2 -13 7 -10 11 2 5 -7 6
-20 3 -20 -3 -27 1 -36 24 -12 31 -21 49 -49 99 -10 18 -16 36 -12 41 4 4 -1
4 -10 1 -9 -3 -27 3 -41 14 -14 10 -30 19 -37 19 -12 0 -107 95 -154 154 -15
20 -32 36 -38 36 -5 0 -14 5 -21 10 -25 21 -83 57 -130 79 l-47 23 21 29 c11
16 19 30 17 30 -2 1 -20 3 -40 4 -33 1 -36 0 -27 -17z"/>
<path d="M1685 2890 c3 -5 11 -10 16 -10 6 0 7 5 4 10 -3 6 -11 10 -16 10 -6
0 -7 -4 -4 -10z"/>
<path d="M1530 2880 c0 -5 5 -10 10 -10 6 0 10 5 10 10 0 6 -4 10 -10 10 -5 0
-10 -4 -10 -10z"/>
<path d="M983 2842 c-1 -22 0 -24 9 -8 6 10 6 22 2 26 -5 5 -10 -3 -11 -18z"/>
<path d="M1670 2859 c0 -5 5 -7 10 -4 6 3 10 8 10 11 0 2 -4 4 -10 4 -5 0 -10
-5 -10 -11z"/>
<path d="M890 2795 c-7 -9 -8 -15 -2 -15 5 0 12 7 16 15 3 8 4 15 2 15 -2 0
-9 -7 -16 -15z"/>
<path d="M1780 2803 c0 -13 29 -38 35 -31 3 3 -4 13 -15 23 -11 10 -20 13 -20
8z"/>
<path d="M1823 2787 c8 -18 14 -21 23 -13 9 8 9 12 -2 14 -8 2 -14 8 -14 13 0
5 -4 9 -9 9 -5 0 -4 -11 2 -23z"/>
<path d="M941 2786 c-10 -12 -8 -13 8 -9 12 3 21 9 21 14 0 14 -16 11 -29 -5z"/>
<path d="M1870 2778 c0 -9 -6 -19 -12 -22 -10 -5 -10 -7 0 -12 6 -3 12 -15 13
-27 0 -21 1 -21 9 -2 8 19 8 19 18 -5 10 -24 10 -24 9 7 -2 26 -6 32 -19 27
-20 -6 -25 12 -5 19 10 4 10 7 0 18 -11 11 -13 10 -13 -3z"/>
<path d="M1750 2776 c0 -2 9 -6 20 -9 11 -3 18 -1 14 4 -5 9 -34 13 -34 5z"/>
<path d="M893 2753 c-4 -10 -11 -21 -17 -25 -8 -6 -8 -8 0 -8 18 0 47 37 35
45 -6 3 -14 -2 -18 -12z"/>
<path d="M1875 2680 c-3 -5 -1 -10 4 -10 6 0 11 5 11 10 0 6 -2 10 -4 10 -3 0
-8 -4 -11 -10z"/>
<path d="M770 2670 c0 -5 8 -6 17 -3 13 5 15 3 9 -13 -5 -14 -4 -16 5 -7 6 6
8 16 5 22 -9 14 -36 15 -36 1z"/>
<path d="M613 2625 c0 -18 19 -15 25 3 2 7 -3 12 -10 12 -8 0 -15 -7 -15 -15z"/>
<path d="M1340 2610 c-9 -6 -10 -10 -3 -10 6 0 15 5 18 10 8 12 4 12 -15 0z"/>
<path d="M695 2601 c-3 -6 -11 -8 -17 -5 -6 4 -9 1 -6 -7 3 -8 14 -19 26 -25
12 -6 19 -14 14 -19 -4 -5 -1 -5 6 -1 7 4 10 11 7 16 -3 5 3 13 12 19 15 8 15
10 3 11 -9 0 -21 -5 -28 -12 -6 -6 -15 -8 -19 -4 -4 4 -1 11 7 16 8 5 12 12 8
15 -3 4 -9 1 -13 -4z"/>
<path d="M1258 2603 c6 -2 18 -2 25 0 6 3 1 5 -13 5 -14 0 -19 -2 -12 -5z"/>
<path d="M2026 2565 c-19 -15 -19 -15 1 -15 11 0 26 7 33 15 17 20 -7 20 -34
0z"/>
<path d="M1136 2555 c-11 -8 -15 -15 -9 -15 6 0 16 7 23 15 16 19 11 19 -14 0z"/>
<path d="M1235 2560 c-3 -5 1 -10 9 -10 9 0 16 5 16 10 0 6 -4 10 -9 10 -6 0
-13 -4 -16 -10z"/>
<path d="M1560 2549 c0 -5 9 -9 20 -9 11 0 20 2 20 4 0 2 -9 6 -20 9 -11 3
-20 1 -20 -4z"/>
<path d="M2095 2550 c3 -5 8 -10 11 -10 2 0 4 5 4 10 0 6 -5 10 -11 10 -5 0
-7 -4 -4 -10z"/>
<path d="M1152 2530 c-14 -23 -15 -30 -3 -30 8 0 24 41 18 47 -2 1 -8 -7 -15
-17z"/>
<path d="M2060 2540 c0 -5 5 -10 10 -10 6 0 10 5 10 10 0 6 -4 10 -10 10 -5 0
-10 -4 -10 -10z"/>
<path d="M690 2530 c0 -6 -4 -8 -10 -5 -6 3 -10 -4 -10 -17 0 -17 3 -19 9 -9
5 7 14 17 21 21 9 5 9 9 1 14 -6 4 -11 2 -11 -4z"/>
<path d="M1540 2520 c0 -6 -12 -8 -27 -5 -27 6 -27 6 -9 -9 21 -17 31 -18 58
-8 17 7 16 8 -2 20 -12 7 -20 8 -20 2z"/>
<path d="M1039 2508 c-10 -6 -7 -7 9 -3 18 5 22 2 22 -14 0 -12 4 -21 10 -21
5 0 7 7 3 16 -3 9 0 20 7 24 8 5 3 8 -13 8 -14 0 -31 -5 -38 -10z"/>
<path d="M2093 2505 c0 -8 4 -12 9 -9 5 3 6 10 3 15 -9 13 -12 11 -12 -6z"/>
<path d="M1620 2500 c0 -5 7 -10 15 -10 8 0 15 5 15 10 0 6 -7 10 -15 10 -8 0
-15 -4 -15 -10z"/>
<path d="M2155 2490 c3 -5 8 -10 11 -10 2 0 4 5 4 10 0 6 -5 10 -11 10 -5 0
-7 -4 -4 -10z"/>
<path d="M2191 2484 c0 -11 3 -14 6 -6 3 7 2 16 -1 19 -3 4 -6 -2 -5 -13z"/>
<path d="M1036 2464 c-4 -10 -1 -14 6 -12 15 5 23 28 10 28 -5 0 -13 -7 -16
-16z"/>
<path d="M2111 2471 c-9 -6 -2 -10 23 -13 20 -2 36 0 36 4 0 4 -4 8 -9 8 -5 0
-15 2 -23 5 -7 3 -19 1 -27 -4z"/>
<path d="M995 2460 c-3 -6 1 -7 9 -4 18 7 21 14 7 14 -6 0 -13 -4 -16 -10z"/>
<path d="M2200 2449 c0 -5 5 -7 10 -4 6 3 10 8 10 11 0 2 -4 4 -10 4 -5 0 -10
-5 -10 -11z"/>
<path d="M1005 2430 c-19 -8 -19 -9 3 -9 12 -1 22 4 22 9 0 6 -1 10 -2 9 -2 0
-12 -4 -23 -9z"/>
<path d="M1047 2422 c-21 -23 -22 -39 -1 -21 13 10 17 10 25 -2 10 -16 11 -2
0 24 -6 18 -7 18 -24 -1z"/>
<path d="M1705 2430 c-3 -5 -1 -10 4 -10 6 0 11 5 11 10 0 6 -2 10 -4 10 -3 0
-8 -4 -11 -10z"/>
<path d="M2140 2430 c0 -5 5 -10 11 -10 5 0 7 5 4 10 -3 6 -8 10 -11 10 -2 0
-4 -4 -4 -10z"/>
<path d="M1720 2410 c-8 -5 -11 -12 -7 -17 5 -4 13 -1 18 7 8 11 12 12 16 3 2
-7 9 -13 15 -13 6 0 6 6 -2 15 -14 17 -20 18 -40 5z"/>
<path d="M2179 2407 c-25 -20 -29 -43 -8 -43 11 0 20 3 20 6 2 8 6 50 5 50 0
0 -8 -6 -17 -13z"/>
<path d="M1853 2385 c0 -9 6 -14 14 -11 7 3 13 1 13 -5 0 -6 5 -7 11 -4 6 5 4
12 -8 21 -24 18 -30 17 -30 -1z"/>
<path d="M590 2381 c0 -8 7 -22 16 -32 15 -17 14 -19 -10 -25 -22 -5 -38 -24
-21 -24 15 0 54 33 49 42 -3 5 0 16 7 24 10 12 9 13 -6 8 -10 -4 -21 -1 -26 7
-7 12 -9 12 -9 0z"/>
<path d="M1910 2362 c0 -5 3 -12 8 -16 4 -4 7 -11 7 -15 0 -4 19 -26 43 -48
33 -31 49 -39 68 -35 35 6 25 22 -30 50 -26 13 -52 34 -58 48 -11 22 -38 34
-38 16z"/>
<path d="M570 2351 c0 -5 5 -13 10 -16 6 -3 10 -2 10 4 0 5 -4 13 -10 16 -5 3
-10 2 -10 -4z"/>
<path d="M940 2334 c-14 -8 -17 -13 -7 -10 10 3 25 6 33 6 8 0 14 5 14 10 0
14 -10 12 -40 -6z"/>
<path d="M946 2305 c-4 -13 -2 -14 14 -5 23 13 26 20 6 20 -8 0 -16 -7 -20
-15z"/>
<path d="M596 2283 c-6 -14 -5 -15 5 -6 7 7 10 15 7 18 -3 3 -9 -2 -12 -12z"/>
<path d="M2189 2283 c-13 -15 -12 -15 9 -4 23 12 28 21 13 21 -5 0 -15 -7 -22
-17z"/>
<path d="M560 2260 c0 -5 5 -10 10 -10 6 0 10 5 10 10 0 6 -4 10 -10 10 -5 0
-10 -4 -10 -10z"/>
<path d="M2055 2229 c-4 -6 -5 -12 -2 -15 2 -3 7 2 10 11 7 17 1 20 -8 4z"/>
<path d="M2082 2218 c-7 -9 -6 -17 4 -26 12 -11 14 -9 14 13 0 28 -3 30 -18
13z"/>
<path d="M1825 2210 c-3 -5 -1 -10 4 -10 6 0 11 5 11 10 0 6 -2 10 -4 10 -3 0
-8 -4 -11 -10z"/>
<path d="M1866 2205 c-11 -8 -16 -21 -13 -30 10 -24 29 -18 22 6 -5 15 -4 19
4 15 6 -4 11 0 11 8 0 19 0 19 -24 1z"/>
<path d="M2120 2185 c0 -8 6 -15 14 -15 22 0 28 17 10 24 -22 9 -24 8 -24 -9z"/>
<path d="M2016 2143 c-6 -14 -5 -15 5 -6 7 7 10 15 7 18 -3 3 -9 -2 -12 -12z"/>
<path d="M573 2134 c-15 -16 -16 -24 -4 -24 8 0 24 30 19 35 -2 2 -9 -3 -15
-11z"/>
<path d="M2020 2110 c-18 -12 -2 -12 25 0 13 6 15 9 5 9 -8 0 -22 -4 -30 -9z"/>
<path d="M1826 2101 c-4 -5 -2 -12 3 -15 5 -4 12 -2 15 3 4 5 2 12 -3 15 -5 4
-12 2 -15 -3z"/>
<path d="M2094 2099 c-3 -6 -3 -13 0 -16 3 -4 6 0 6 8 0 12 2 12 9 0 5 -8 11
-9 15 -3 3 5 -1 12 -9 16 -8 3 -17 1 -21 -5z"/>
<path d="M886 2075 c-3 -8 -1 -15 4 -15 6 0 10 7 10 15 0 8 -2 15 -4 15 -2 0
-6 -7 -10 -15z"/>
<path d="M2275 2070 c10 -11 20 -20 22 -20 2 0 -2 9 -9 20 -7 11 -17 20 -22
20 -5 0 -1 -9 9 -20z"/>
<path d="M2245 2050 c-19 -8 -19 -9 3 -9 12 -1 25 -8 28 -16 4 -8 12 -15 20
-15 8 0 14 -5 14 -12 0 -6 3 -8 6 -5 4 4 -6 20 -22 36 -22 22 -34 27 -49 21z"/>
<path d="M2140 2032 c0 -12 19 -26 26 -19 2 2 -2 10 -11 17 -9 8 -15 8 -15 2z"/>
<path d="M575 2004 c9 -9 19 -13 23 -10 3 4 0 11 -8 16 -24 15 -33 11 -15 -6z"/>
<path d="M2189 2000 c-13 -10 -18 -19 -11 -20 6 0 12 5 12 10 0 6 9 10 20 10
11 0 20 5 20 10 0 16 -16 12 -41 -10z"/>
<path d="M2250 2016 c0 -3 7 -12 16 -20 23 -23 40 -19 19 4 -16 18 -35 26 -35
16z"/>
<path d="M2120 2000 c0 -5 5 -10 10 -10 6 0 10 5 10 10 0 6 -4 10 -10 10 -5 0
-10 -4 -10 -10z"/>
<path d="M940 1985 c-8 -10 -9 -15 -2 -15 6 0 9 -8 6 -17 -5 -15 -4 -16 5 -3
10 13 12 13 21 0 14 -22 12 -6 -4 24 -12 23 -15 24 -26 11z"/>
<path d="M2230 1980 c-11 -7 -12 -12 -4 -20 8 -8 13 -6 17 9 3 12 4 21 4 21
-1 0 -9 -5 -17 -10z"/>
<path d="M585 1970 c3 -5 8 -10 11 -10 2 0 4 5 4 10 0 6 -5 10 -11 10 -5 0 -7
-4 -4 -10z"/>
<path d="M2155 1950 c-3 -5 -1 -10 4 -10 6 0 11 5 11 10 0 6 -2 10 -4 10 -3 0
-8 -4 -11 -10z"/>
<path d="M578 1933 c7 -3 16 -2 19 1 4 3 -2 6 -13 5 -11 0 -14 -3 -6 -6z"/>
<path d="M2190 1890 c0 -5 7 -10 15 -10 8 0 15 5 15 10 0 6 -7 10 -15 10 -8 0
-15 -4 -15 -10z"/>
<path d="M600 1879 c0 -5 5 -7 10 -4 6 3 10 8 10 11 0 2 -4 4 -10 4 -5 0 -10
-5 -10 -11z"/>
<path d="M1020 1870 c-9 -6 -10 -10 -3 -10 6 0 15 5 18 10 8 12 4 12 -15 0z"/>
<path d="M1066 1867 c3 -10 9 -15 12 -12 3 3 0 11 -7 18 -10 9 -11 8 -5 -6z"/>
<path d="M1128 1823 c-10 -2 -18 -12 -18 -21 0 -14 2 -14 9 -3 5 7 14 10 20 7
6 -4 11 0 11 8 0 9 -1 15 -2 15 -2 -1 -11 -3 -20 -6z"/>
<path d="M631 1804 c0 -11 3 -14 6 -6 3 7 2 16 -1 19 -3 4 -6 -2 -5 -13z"/>
<path d="M1067 1794 c-8 -8 3 -34 14 -34 11 0 12 27 0 34 -4 3 -11 3 -14 0z"/>
<path d="M1105 1760 c-3 -5 -1 -10 4 -10 6 0 11 5 11 10 0 6 -2 10 -4 10 -3 0
-8 -4 -11 -10z"/>
<path d="M1136 1751 c-3 -5 1 -11 9 -14 9 -4 12 -1 8 9 -6 16 -10 17 -17 5z"/>
<path d="M1170 1740 c0 -5 6 -10 14 -10 8 0 17 -6 19 -12 4 -8 6 -7 6 3 1 9
-6 20 -15 23 -21 8 -24 8 -24 -4z"/>
<path d="M1260 1740 c0 -5 7 -10 15 -10 8 0 15 5 15 10 0 6 -7 10 -15 10 -8 0
-15 -4 -15 -10z"/>
<path d="M684 1728 c-5 -7 -3 -8 6 -3 7 4 16 2 21 -6 4 -7 11 -10 16 -6 4 5 1
12 -7 17 -20 13 -27 12 -36 -2z"/>
<path d="M684 1699 c-5 -9 -2 -10 9 -6 10 3 17 3 17 -2 0 -4 7 -8 15 -8 8 0
15 4 15 9 0 4 -4 8 -9 8 -5 0 -16 3 -24 6 -8 3 -18 0 -23 -7z"/>
<path d="M1602 1653 c-10 -10 -6 -11 20 -6 42 8 44 10 15 15 -13 2 -29 -1 -35
-9z"/>
<path d="M1675 1660 c3 -5 11 -10 16 -10 6 0 7 5 4 10 -3 6 -11 10 -16 10 -6
0 -7 -4 -4 -10z"/>
<path d="M1660 1624 c0 -16 9 -18 28 -5 10 6 9 10 -7 14 -14 3 -21 0 -21 -9z"/>
<path d="M1900 1626 c7 -7 14 -6 21 1 9 9 7 12 -9 10 -14 -1 -18 -5 -12 -11z"/>
<path d="M793 1615 c0 -8 4 -12 9 -9 5 3 6 10 3 15 -9 13 -12 11 -12 -6z"/>
<path d="M1797 1623 c-13 -12 -7 -23 13 -23 13 0 18 5 14 15 -7 16 -17 19 -27
8z"/>
<path d="M1892 1571 c4 -13 18 -16 19 -4 0 4 -5 9 -11 12 -7 2 -11 -2 -8 -8z"/>
<path d="M817 1537 c-5 -15 2 -37 13 -37 14 0 18 25 5 37 -10 9 -14 9 -18 0z"/>
<path d="M1876 1537 c3 -10 9 -15 12 -12 3 3 0 11 -7 18 -10 9 -11 8 -5 -6z"/>
<path d="M1810 1530 c-13 -8 -13 -10 2 -10 9 0 20 5 23 10 8 13 -5 13 -25 0z"/>
<path d="M1850 1520 c0 -5 4 -10 10 -10 5 0 7 -6 4 -14 -7 -17 19 -27 37 -14
11 8 11 9 -3 5 -11 -4 -18 2 -22 19 -6 23 -26 34 -26 14z"/>
<path d="M940 1490 c0 -5 5 -10 11 -10 5 0 7 5 4 10 -3 6 -8 10 -11 10 -2 0
-4 -4 -4 -10z"/>
<path d="M1993 1473 c-15 -5 -17 -23 -4 -23 5 0 11 7 15 15 3 8 4 15 3 14 -1
0 -8 -3 -14 -6z"/>
<path d="M990 1442 c0 -10 33 -42 43 -42 15 0 5 19 -18 34 -14 9 -25 13 -25 8z"/>
<path d="M2126 1415 c7 -18 54 -26 54 -9 0 8 -3 13 -7 13 -5 -1 -10 0 -13 1
-22 8 -38 6 -34 -5z"/>
<path d="M975 1411 c-3 -5 -1 -12 5 -16 5 -3 10 1 10 9 0 18 -6 21 -15 7z"/>
<path d="M2900 1409 c0 -5 11 -9 25 -9 33 0 33 15 0 16 -14 1 -25 -2 -25 -7z"/>
<path d="M1106 1401 c-4 -6 -3 -11 3 -11 6 0 8 -8 4 -17 -5 -14 -3 -15 7 -6 8
7 9 16 2 28 -6 12 -11 14 -16 6z"/>
<path d="M1972 1385 c0 -16 2 -22 5 -12 2 9 2 23 0 30 -3 6 -5 -1 -5 -18z"/>
<path d="M1058 1393 c7 -3 16 -2 19 1 4 3 -2 6 -13 5 -11 0 -14 -3 -6 -6z"/>
<path d="M1016 1375 c4 -8 8 -15 10 -15 2 0 4 7 4 15 0 8 -4 15 -10 15 -5 0
-7 -7 -4 -15z"/>
<path d="M1157 1383 c7 -2 9 -12 6 -21 -6 -18 -5 -17 14 8 10 13 8 16 -10 17
-12 0 -17 -1 -10 -4z"/>
<path d="M2001 1374 c0 -11 3 -14 6 -6 3 7 2 16 -1 19 -3 4 -6 -2 -5 -13z"/>
<path d="M2835 1380 c3 -5 8 -10 11 -10 2 0 4 5 4 10 0 6 -5 10 -11 10 -5 0
-7 -4 -4 -10z"/>
<path d="M968 1372 c-10 -2 -18 -8 -18 -13 0 -11 11 -11 30 1 18 11 11 18 -12
12z"/>
<path d="M1240 1370 c0 -5 5 -10 11 -10 5 0 7 5 4 10 -3 6 -8 10 -11 10 -2 0
-4 -4 -4 -10z"/>
<path d="M2278 1363 c7 -3 16 -2 19 1 4 3 -2 6 -13 5 -11 0 -14 -3 -6 -6z"/>
<path d="M2868 1363 c6 -2 18 -2 25 0 6 3 1 5 -13 5 -14 0 -19 -2 -12 -5z"/>
<path d="M875 1350 c-3 -5 -1 -10 4 -10 6 0 11 5 11 10 0 6 -2 10 -4 10 -3 0
-8 -4 -11 -10z"/>
<path d="M448 1338 c5 -5 16 -8 23 -6 8 3 3 7 -10 11 -17 4 -21 3 -13 -5z"/>
<path d="M900 1341 c0 -5 5 -13 10 -16 6 -3 10 -2 10 4 0 5 -4 13 -10 16 -5 3
-10 2 -10 -4z"/>
<path d="M525 1330 c4 -6 11 -8 16 -5 14 9 11 15 -7 15 -8 0 -12 -5 -9 -10z"/>
<path d="M1516 1324 c-5 -14 -4 -15 9 -4 17 14 19 20 6 20 -5 0 -12 -7 -15
-16z"/>
<path d="M2490 1320 c0 -5 7 -10 15 -10 8 0 15 5 15 10 0 6 -7 10 -15 10 -8 0
-15 -4 -15 -10z"/>
<path d="M884 1294 c-1 -12 3 -25 10 -27 6 -2 12 6 12 19 1 12 -3 25 -10 27
-6 2 -12 -6 -12 -19z"/>
<path d="M1528 1297 c-10 -8 -13 -18 -9 -26 6 -9 13 -5 25 13 18 28 11 33 -16
13z"/>
<path d="M265 1284 c9 -9 19 -13 23 -10 3 4 0 11 -8 16 -24 15 -33 11 -15 -6z"/>
<path d="M784 1291 c4 -6 0 -14 -8 -17 -9 -3 -16 -10 -16 -15 0 -15 15 -10 27
11 9 14 10 21 1 26 -7 4 -8 3 -4 -5z"/>
<path d="M956 1284 c-20 -19 -20 -20 2 -20 10 0 18 8 18 18 0 22 -1 22 -20 2z"/>
<path d="M990 1288 c0 -9 5 -20 10 -23 13 -8 13 5 0 25 -8 13 -10 13 -10 -2z"/>
<path d="M1428 1293 c6 -2 18 -2 25 0 6 3 1 5 -13 5 -14 0 -19 -2 -12 -5z"/>
<path d="M2368 1293 c7 -3 16 -2 19 1 4 3 -2 6 -13 5 -11 0 -14 -3 -6 -6z"/>
<path d="M2446 1285 c-3 -8 -3 -15 0 -15 3 0 12 7 20 15 13 13 13 15 1 15 -8
0 -17 -7 -21 -15z"/>
<path d="M1555 1270 c-3 -5 -1 -10 4 -10 6 0 11 5 11 10 0 6 -2 10 -4 10 -3 0
-8 -4 -11 -10z"/>
<path d="M2470 1270 c0 -5 5 -10 10 -10 6 0 10 5 10 10 0 6 -4 10 -10 10 -5 0
-10 -4 -10 -10z"/>
<path d="M361 1254 c0 -11 3 -14 6 -6 3 7 2 16 -1 19 -3 4 -6 -2 -5 -13z"/>
<path d="M1607 1263 c-10 -9 -9 -23 1 -23 5 0 9 7 9 15 0 17 -1 18 -10 8z"/>
<path d="M2037 1264 c-3 -4 1 -17 10 -30 11 -17 21 -23 34 -19 21 7 27 -11 7
-18 -7 -2 -9 -8 -5 -13 9 -10 28 16 23 31 -2 6 -12 9 -24 8 -20 -2 -37 21 -26
38 6 10 -9 12 -19 3z"/>
<path d="M2377 1244 c14 -14 28 -22 32 -19 6 7 -35 45 -50 45 -4 0 3 -12 18
-26z"/>
<path d="M726 1252 c29 -19 46 -92 22 -92 -6 0 -9 -2 -6 -5 12 -13 36 8 34 30
-3 30 -33 75 -49 75 -8 0 -9 -3 -1 -8z"/>
<path d="M1341 1230 c-5 -16 -6 -30 -2 -30 5 0 11 8 15 18 3 9 9 23 12 30 3 6
1 12 -4 12 -6 0 -15 -13 -21 -30z"/>
<path d="M390 1238 c0 -9 5 -20 10 -23 13 -8 13 5 0 25 -8 13 -10 13 -10 -2z"/>
<path d="M658 1243 c7 -3 16 -2 19 1 4 3 -2 6 -13 5 -11 0 -14 -3 -6 -6z"/>
<path d="M430 1225 c7 -8 17 -15 22 -15 6 0 5 7 -2 15 -7 8 -17 15 -22 15 -6
0 -5 -7 2 -15z"/>
<path d="M700 1232 c0 -5 10 -17 21 -28 22 -19 22 -19 10 3 -12 24 -31 39 -31
25z"/>
<path d="M2350 1234 c1 -15 40 -60 40 -46 0 7 -9 22 -20 34 -11 12 -20 18 -20
12z"/>
<path d="M2730 1231 c0 -10 19 -25 25 -20 1 2 -3 10 -11 17 -8 7 -14 8 -14 3z"/>
<path d="M2915 1230 c-3 -5 -2 -10 4 -10 5 0 13 5 16 10 3 6 2 10 -4 10 -5 0
-13 -4 -16 -10z"/>
<path d="M2858 1206 c-16 -22 -16 -25 -1 -38 13 -10 15 -10 9 0 -8 14 10 42
26 42 6 0 5 -7 -2 -15 -7 -9 -8 -15 -2 -15 15 0 22 26 9 39 -15 15 -19 14 -39
-13z"/>
<path d="M1372 1208 c-14 -14 -16 -42 -3 -34 7 5 23 46 17 46 -1 0 -7 -5 -14
-12z"/>
<path d="M367 1188 c-4 -12 -4 -24 -2 -27 3 -2 5 1 5 7 0 7 5 12 10 12 6 0 10
-7 10 -15 0 -8 5 -15 10 -15 16 0 12 19 -9 41 -18 20 -18 20 -24 -3z"/>
<path d="M1665 1200 c-3 -5 1 -10 9 -10 9 0 16 5 16 10 0 6 -4 10 -9 10 -6 0
-13 -4 -16 -10z"/>
<path d="M410 1190 c0 -13 11 -13 30 0 12 8 11 10 -7 10 -13 0 -23 -4 -23 -10z"/>
<path d="M2350 1180 c0 -5 5 -10 11 -10 5 0 7 5 4 10 -3 6 -8 10 -11 10 -2 0
-4 -4 -4 -10z"/>
<path d="M490 1164 c0 -8 5 -12 10 -9 6 4 8 11 5 16 -9 14 -15 11 -15 -7z"/>
<path d="M1325 1160 c4 -6 11 -8 16 -5 14 9 11 15 -7 15 -8 0 -12 -5 -9 -10z"/>
<path d="M1718 1162 c7 -5 10 -16 7 -24 -4 -9 -2 -19 4 -22 6 -4 9 4 8 20 -1
15 -9 29 -17 31 -12 4 -12 2 -2 -5z"/>
<path d="M2106 1153 c-3 -4 -6 -11 -6 -17 0 -6 4 -5 9 3 7 11 12 10 22 -8 17
-26 34 -28 20 -2 -11 20 -35 33 -45 24z"/>
<path d="M2365 1140 c3 -5 8 -10 11 -10 2 0 4 5 4 10 0 6 -5 10 -11 10 -5 0
-7 -4 -4 -10z"/>
<path d="M475 1130 c-3 -5 -1 -10 4 -10 6 0 11 5 11 10 0 6 -2 10 -4 10 -3 0
-8 -4 -11 -10z"/>
<path d="M2395 1120 c-4 -6 3 -10 14 -10 25 0 27 6 6 13 -8 4 -17 2 -20 -3z"/>
<path d="M2805 1120 c-4 -6 3 -10 14 -10 25 0 27 6 6 13 -8 4 -17 2 -20 -3z"/>
<path d="M1701 1104 c0 -11 3 -14 6 -6 3 7 2 16 -1 19 -3 4 -6 -2 -5 -13z"/>
<path d="M1732 1084 c-7 -8 -8 -14 -3 -14 10 0 25 19 20 25 -2 1 -10 -3 -17
-11z"/>
<path d="M2136 1075 c-6 -18 2 -45 15 -45 13 0 11 14 -3 28 -9 9 -9 12 0 12 7
0 12 5 12 10 0 15 -17 12 -24 -5z"/>
<path d="M2806 1078 c3 -4 11 -5 19 -1 21 7 19 12 -4 10 -11 0 -18 -5 -15 -9z"/>
<path d="M2771 1053 c-1 -14 5 -23 14 -23 8 0 15 -4 15 -10 0 -5 5 -10 10 -10
18 0 11 18 -9 25 -11 3 -22 14 -24 23 -3 12 -5 11 -6 -5z"/>
<path d="M797 1041 c-4 -17 -3 -21 5 -13 5 5 8 16 6 23 -3 8 -7 3 -11 -10z"/>
<path d="M827 1043 c-4 -3 -7 -11 -7 -17 0 -6 5 -5 12 2 6 6 9 14 7 17 -3 3
-9 2 -12 -2z"/>
<path d="M1816 1041 c-19 -7 -19 -8 2 -13 15 -4 22 -2 22 8 0 8 -1 14 -2 13
-2 0 -12 -4 -22 -8z"/>
<path d="M2677 1027 c-11 -29 -9 -43 4 -30 6 6 9 19 7 29 -3 18 -4 18 -11 1z"/>
<path d="M2537 1023 c-10 -9 -9 -41 1 -47 18 -11 28 9 17 31 -7 13 -15 20 -18
16z"/>
<path d="M531 1004 c0 -11 3 -14 6 -6 3 7 2 16 -1 19 -3 4 -6 -2 -5 -13z"/>
<path d="M857 1013 c-10 -10 -8 -63 2 -63 7 0 12 70 5 70 0 0 -4 -3 -7 -7z"/>
<path d="M2767 1004 c6 -15 23 -19 23 -5 0 5 -7 11 -14 14 -10 4 -13 1 -9 -9z"/>
<path d="M2627 1004 c-3 -4 1 -13 9 -21 19 -20 26 -13 10 9 -7 10 -16 15 -19
12z"/>
<path d="M805 989 c-4 -6 -4 -13 -1 -16 3 -4 6 -1 6 5 0 6 8 13 18 15 15 4 15
5 0 6 -9 0 -20 -4 -23 -10z"/>
<path d="M2820 990 c0 -5 5 -10 11 -10 5 0 7 5 4 10 -3 6 -8 10 -11 10 -2 0
-4 -4 -4 -10z"/>
<path d="M1802 960 c0 -14 2 -19 5 -12 2 6 2 18 0 25 -3 6 -5 1 -5 -13z"/>
<path d="M2745 970 c3 -5 13 -10 21 -10 8 0 14 5 14 10 0 6 -9 10 -21 10 -11
0 -17 -4 -14 -10z"/>
<path d="M2506 944 c-7 -19 0 -34 17 -34 9 0 8 3 -1 8 -7 5 -10 16 -6 25 3 9
4 17 1 17 -3 0 -8 -7 -11 -16z"/>
<path d="M1080 943 c0 -5 5 -15 10 -23 8 -12 10 -11 10 8 0 12 -4 22 -10 22
-5 0 -10 -3 -10 -7z"/>
<path d="M1384 800 c0 -85 2 -120 3 -77 2 42 2 112 0 155 -1 42 -3 7 -3 -78z"/>
<path d="M2220 940 c-8 -5 -12 -12 -9 -15 4 -3 12 1 19 10 14 17 11 19 -10 5z"/>
<path d="M2712 900 c-14 -23 -15 -30 -4 -30 4 0 12 11 19 25 13 30 3 33 -15 5z"/>
<path d="M1800 900 c0 -5 5 -10 10 -10 6 0 10 5 10 10 0 6 -4 10 -10 10 -5 0
-10 -4 -10 -10z"/>
<path d="M2620 890 c0 -5 5 -10 10 -10 6 0 10 5 10 10 0 6 -4 10 -10 10 -5 0
-10 -4 -10 -10z"/>
<path d="M1087 870 c-3 -11 -1 -20 4 -20 5 0 9 9 9 20 0 11 -2 20 -4 20 -2 0
-6 -9 -9 -20z"/>
<path d="M421 864 c0 -11 3 -14 6 -6 3 7 2 16 -1 19 -3 4 -6 -2 -5 -13z"/>
<path d="M473 873 c-7 -3 -13 -9 -13 -14 0 -4 7 -6 15 -3 9 4 15 0 15 -9 0 -9
12 -29 26 -44 20 -22 23 -24 15 -6 -6 12 -16 25 -21 28 -6 3 -10 15 -10 25 0
21 -9 29 -27 23z"/>
<path d="M1820 860 c-6 -11 -7 -20 -2 -20 6 0 12 9 15 20 3 11 3 20 1 20 -2 0
-8 -9 -14 -20z"/>
<path d="M2490 873 c0 -15 18 -35 23 -27 3 5 -1 15 -9 22 -8 7 -14 9 -14 5z"/>
<path d="M2102 850 c0 -14 2 -19 5 -12 2 6 2 18 0 25 -3 6 -5 1 -5 -13z"/>
<path d="M2677 828 c-11 -20 -13 -27 -4 -20 8 7 16 10 18 8 2 -2 5 7 5 20 1
13 1 24 0 24 0 0 -9 -14 -19 -32z"/>
<path d="M820 839 c0 -5 5 -7 10 -4 6 3 10 8 10 11 0 2 -4 4 -10 4 -5 0 -10
-5 -10 -11z"/>
<path d="M2242 830 c0 -14 2 -19 5 -12 2 6 2 18 0 25 -3 6 -5 1 -5 -13z"/>
<path d="M2582 828 c2 -12 10 -23 18 -25 12 -4 13 -3 1 5 -8 6 -11 17 -8 26 4
9 2 16 -4 16 -6 0 -9 -10 -7 -22z"/>
<path d="M2280 820 c6 -11 13 -20 16 -20 2 0 0 9 -6 20 -6 11 -13 20 -16 20
-2 0 0 -9 6 -20z"/>
<path d="M2546 825 c-9 -26 -7 -32 5 -12 6 10 9 21 6 23 -2 3 -7 -2 -11 -11z"/>
<path d="M852 810 c0 -14 2 -19 5 -12 2 6 2 18 0 25 -3 6 -5 1 -5 -13z"/>
<path d="M820 794 c0 -8 5 -12 10 -9 6 3 10 10 10 16 0 5 -4 9 -10 9 -5 0 -10
-7 -10 -16z"/>
<path d="M1095 790 c-3 -6 1 -7 9 -4 18 7 21 14 7 14 -6 0 -13 -4 -16 -10z"/>
<path d="M2680 791 c0 -6 4 -13 10 -16 6 -3 7 1 4 9 -7 18 -14 21 -14 7z"/>
<path d="M1691 774 c0 -11 3 -14 6 -6 3 7 2 16 -1 19 -3 4 -6 -2 -5 -13z"/>
<path d="M2099 783 c0 -5 -3 -19 -5 -32 -2 -14 -2 -22 1 -19 8 8 17 58 10 58
-3 0 -5 -3 -6 -7z"/>
<path d="M2230 781 c0 -6 4 -13 10 -16 6 -3 7 1 4 9 -7 18 -14 21 -14 7z"/>
<path d="M2270 782 c1 -17 17 -29 32 -23 15 5 13 8 -7 18 -14 6 -25 8 -25 5z"/>
<path d="M496 763 c-6 -14 -5 -15 5 -6 7 7 10 15 7 18 -3 3 -9 -2 -12 -12z"/>
<path d="M793 760 c1 -11 5 -20 9 -20 11 0 10 28 -1 35 -6 3 -9 -4 -8 -15z"/>
<path d="M2550 771 c0 -5 5 -13 10 -16 6 -3 10 -2 10 4 0 5 -4 13 -10 16 -5 3
-10 2 -10 -4z"/>
<path d="M2640 766 c0 -2 7 -7 16 -10 8 -3 12 -2 9 4 -6 10 -25 14 -25 6z"/>
<path d="M460 745 c0 -8 2 -15 4 -15 2 0 6 7 10 15 3 8 1 15 -4 15 -6 0 -10
-7 -10 -15z"/>
<path d="M865 740 c-3 -5 -1 -10 4 -10 6 0 11 5 11 10 0 6 -2 10 -4 10 -3 0
-8 -4 -11 -10z"/>
<path d="M503 730 c2 -8 12 -16 23 -17 13 -2 15 -1 4 4 -8 3 -19 11 -23 17 -6
7 -7 6 -4 -4z"/>
<path d="M1770 730 c0 -5 7 -10 16 -10 8 0 12 5 9 10 -3 6 -10 10 -16 10 -5 0
-9 -4 -9 -10z"/>
<path d="M770 719 c0 -5 11 -9 25 -9 14 0 25 2 25 4 0 2 -11 6 -25 8 -14 3
-25 1 -25 -3z"/>
<path d="M472 708 c-7 -7 -12 -16 -12 -21 0 -5 7 -1 16 8 9 9 14 18 12 20 -2
3 -10 -1 -16 -7z"/>
<path d="M1740 695 c0 -16 6 -25 15 -25 8 0 15 5 15 10 0 6 -5 10 -11 10 -6 0
-9 7 -5 15 3 8 1 15 -4 15 -6 0 -10 -11 -10 -25z"/>
<path d="M2070 716 c0 -2 6 -9 14 -15 10 -9 15 -8 20 4 4 10 -1 15 -14 15 -11
0 -20 -2 -20 -4z"/>
<path d="M2319 698 c5 -13 16 -24 25 -24 13 -2 13 -1 1 3 -8 2 -15 13 -15 24
0 10 -4 19 -10 19 -6 0 -6 -9 -1 -22z"/>
<path d="M2620 699 c0 -5 5 -7 10 -4 6 3 10 8 10 11 0 2 -4 4 -10 4 -5 0 -10
-5 -10 -11z"/>
<path d="M500 690 c0 -5 5 -10 11 -10 5 0 7 5 4 10 -3 6 -8 10 -11 10 -2 0 -4
-4 -4 -10z"/>
<path d="M810 680 c-13 -8 -13 -11 -1 -22 10 -10 12 -10 7 0 -4 7 -1 12 8 12
9 0 16 -8 16 -19 0 -11 5 -23 10 -26 7 -4 8 3 4 22 -11 47 -16 51 -44 33z"/>
<path d="M2100 669 c0 -5 5 -7 10 -4 6 3 10 8 10 11 0 2 -4 4 -10 4 -5 0 -10
-5 -10 -11z"/>
<path d="M472 654 c-7 -8 -8 -14 -3 -14 10 0 25 19 20 25 -2 1 -10 -3 -17 -11z"/>
<path d="M1726 651 c21 -21 29 -19 21 4 -4 8 -14 15 -23 15 -16 0 -16 -2 2
-19z"/>
<path d="M2066 635 c-18 -27 -21 -55 -6 -55 5 0 7 7 4 15 -3 8 1 22 10 30 15
15 22 35 12 35 -2 0 -11 -11 -20 -25z"/>
<path d="M2596 645 c-3 -8 -1 -15 4 -15 13 0 22 18 11 24 -5 3 -11 -1 -15 -9z"/>
<path d="M890 645 c0 -5 5 -17 10 -25 5 -8 10 -10 10 -5 0 6 -5 17 -10 25 -5
8 -10 11 -10 5z"/>
<path d="M1346 635 c4 -8 10 -15 15 -15 4 0 6 7 3 15 -4 8 -10 15 -15 15 -4 0
-6 -7 -3 -15z"/>
<path d="M361 631 c3 -8 16 -21 29 -30 18 -12 22 -13 19 -2 -3 8 -16 21 -29
30 -18 12 -22 13 -19 2z"/>
<path d="M1705 631 c-6 -11 13 -26 22 -17 4 3 0 6 -8 6 -11 0 -11 2 1 10 9 6
10 10 3 10 -6 0 -14 -4 -18 -9z"/>
<path d="M953 623 c-19 -7 -16 -43 3 -43 9 0 12 -5 8 -12 -4 -7 -3 -8 4 -4 18
11 15 36 -3 30 -21 -8 -19 13 3 25 17 11 7 13 -15 4z"/>
<path d="M2343 623 c-7 -2 -13 -11 -13 -18 0 -7 -6 -15 -12 -18 -7 -2 -9 -8
-5 -13 5 -5 13 -1 18 8 5 9 16 24 25 33 15 15 11 18 -13 8z"/>
<path d="M2616 615 c-3 -8 -1 -25 4 -37 8 -20 9 -18 9 15 1 39 -3 47 -13 22z"/>
<path d="M450 609 c0 -5 5 -7 10 -4 6 3 10 8 10 11 0 2 -4 4 -10 4 -5 0 -10
-5 -10 -11z"/>
<path d="M1337 603 c-4 -3 -7 -11 -7 -17 0 -6 5 -5 12 2 6 6 9 14 7 17 -3 3
-9 2 -12 -2z"/>
<path d="M2366 593 c-5 -11 1 -23 16 -35 30 -23 37 -22 31 1 -3 13 -10 17 -20
14 -12 -5 -14 -1 -8 15 8 26 -10 30 -19 5z"/>
<path d="M625 569 c-11 -17 1 -21 15 -4 8 9 8 15 2 15 -6 0 -14 -5 -17 -11z"/>
<path d="M1365 570 c3 -5 8 -10 11 -10 2 0 4 5 4 10 0 6 -5 10 -11 10 -5 0 -7
-4 -4 -10z"/>
<path d="M2564 565 c-10 -8 -14 -14 -9 -14 6 0 19 6 29 14 11 8 15 15 10 15
-6 0 -19 -7 -30 -15z"/>
<path d="M2040 561 c0 -5 5 -13 10 -16 6 -3 10 -2 10 4 0 5 -4 13 -10 16 -5 3
-10 2 -10 -4z"/>
<path d="M80 540 c0 -5 5 -10 11 -10 5 0 7 5 4 10 -3 6 -8 10 -11 10 -2 0 -4
-4 -4 -10z"/>
<path d="M167 533 c18 -2 50 -2 70 0 21 2 7 4 -32 4 -38 0 -55 -2 -38 -4z"/>
<path d="M1555 530 c3 -5 8 -10 11 -10 2 0 4 5 4 10 0 6 -5 10 -11 10 -5 0 -7
-4 -4 -10z"/>
<path d="M1590 529 c0 -5 5 -7 10 -4 6 3 10 8 10 11 0 2 -4 4 -10 4 -5 0 -10
-5 -10 -11z"/>
<path d="M1510 510 c0 -6 7 -10 15 -10 8 0 15 2 15 4 0 2 -7 6 -15 10 -8 3
-15 1 -15 -4z"/>
<path d="M2062 495 c-1 -14 3 -25 8 -25 6 0 10 11 10 25 0 14 -4 25 -8 25 -4
0 -9 -11 -10 -25z"/>
<path d="M530 481 c0 -5 9 -7 20 -4 11 3 20 7 20 9 0 2 -9 4 -20 4 -11 0 -20
-4 -20 -9z"/>
<path d="M680 476 c-9 -11 -9 -19 0 -33 10 -16 10 -16 5 4 -4 15 0 25 12 32
10 6 13 11 7 11 -6 0 -17 -7 -24 -14z"/>
<path d="M1970 480 c0 -5 10 -15 23 -21 22 -12 22 -12 3 10 -21 23 -26 26 -26
11z"/>
<path d="M2434 471 c18 -20 18 -21 1 -21 -10 0 -16 -3 -12 -6 9 -9 48 6 42 17
-4 5 -16 14 -28 20 -22 12 -22 12 -3 -10z"/>
<path d="M393 468 c3 -9 1 -18 -6 -21 -8 -2 -8 -5 0 -10 15 -9 23 17 11 34 -8
11 -9 11 -5 -3z"/>
<path d="M635 470 c-3 -6 1 -7 9 -4 18 7 21 14 7 14 -6 0 -13 -4 -16 -10z"/>
<path d="M1485 470 c-3 -5 -1 -10 4 -10 6 0 11 5 11 10 0 6 -2 10 -4 10 -3 0
-8 -4 -11 -10z"/>
<path d="M356 455 c-9 -26 -7 -32 5 -12 6 10 9 21 6 23 -2 3 -7 -2 -11 -11z"/>
<path d="M432 458 c-8 -10 -4 -13 15 -15 15 0 22 2 17 6 -5 3 -12 10 -15 14
-3 4 -11 2 -17 -5z"/>
<path d="M707 463 c-3 -5 -2 -15 2 -22 5 -7 11 -9 14 -4 3 5 2 15 -2 22 -5 7
-11 9 -14 4z"/>
<path d="M1299 461 c8 -5 20 -7 28 -4 7 3 13 -2 13 -11 0 -9 5 -16 10 -16 6 0
10 4 10 8 0 16 -25 32 -49 32 -19 0 -22 -3 -12 -9z"/>
<path d="M1400 455 c-10 -12 -10 -15 4 -15 9 0 16 7 16 15 0 8 -2 15 -4 15 -2
0 -9 -7 -16 -15z"/>
<path d="M1450 460 c0 -5 5 -10 11 -10 5 0 7 5 4 10 -3 6 -8 10 -11 10 -2 0
-4 -4 -4 -10z"/>
<path d="M261 451 c-9 -6 -10 -11 -2 -15 6 -4 11 -3 11 3 0 5 8 12 18 14 12 3
13 5 2 6 -8 0 -21 -3 -29 -8z"/>
<path d="M521 451 c-9 -6 -10 -11 -2 -15 6 -4 11 -2 11 4 0 7 7 10 15 6 8 -3
15 -1 15 4 0 12 -20 13 -39 1z"/>
<path d="M1953 453 c-15 -5 -17 -23 -4 -23 5 0 11 7 15 15 3 8 4 15 3 14 -1 0
-8 -3 -14 -6z"/>
<path d="M1268 443 c6 -2 18 -2 25 0 6 3 1 5 -13 5 -14 0 -19 -2 -12 -5z"/>
<path d="M830 344 c-24 -13 -24 -14 -4 -14 12 0 24 7 28 15 3 8 4 15 3 14 -1
-1 -13 -7 -27 -15z"/>
<path d="M1946 344 c-19 -19 -21 -31 -3 -15 8 6 17 8 20 4 4 -3 7 1 7 10 0 21
-4 21 -24 1z"/>
<path d="M1862 309 c-14 -22 -15 -29 -4 -29 11 0 33 38 24 44 -4 3 -13 -4 -20
-15z"/>
<path d="M891 284 c0 -11 3 -14 6 -6 3 7 2 16 -1 19 -3 4 -6 -2 -5 -13z"/>
<path d="M925 290 c-8 -13 3 -30 18 -29 9 0 9 2 0 5 -7 3 -9 12 -6 20 6 16 -3
19 -12 4z"/>
<path d="M1810 290 c0 -5 5 -10 11 -10 5 0 7 5 4 10 -3 6 -8 10 -11 10 -2 0
-4 -4 -4 -10z"/>
<path d="M975 273 c3 -3 -2 -14 -10 -23 -13 -14 -12 -16 4 -16 17 0 23 29 8
41 -4 3 -5 2 -2 -2z"/>
<path d="M1766 271 c-4 -7 -5 -15 -2 -18 9 -9 19 4 14 18 -4 11 -6 11 -12 0z"/>
<path d="M1806 261 c-3 -4 6 -6 19 -3 14 2 25 6 25 8 0 8 -39 4 -44 -5z"/>
<path d="M1080 193 c0 -21 46 -68 54 -55 4 7 1 12 -8 12 -21 0 -20 16 2 30 14
9 13 10 -7 4 -15 -4 -27 -1 -32 7 -6 10 -9 10 -9 2z"/>
<path d="M1655 186 c-17 -12 -16 -13 12 -12 20 1 29 5 26 14 -6 16 -15 15 -38
-2z"/>
<path d="M1191 173 c6 -7 8 -17 4 -23 -3 -5 0 -10 7 -10 7 0 24 -3 38 -5 22
-5 22 -4 5 4 -17 8 -18 10 -2 10 21 1 23 21 2 21 -8 0 -15 -4 -15 -10 0 -5 -5
-10 -11 -10 -6 0 -8 8 -5 18 4 13 1 18 -13 18 -15 0 -17 -4 -10 -13z"/>
<path d="M1490 166 c0 -2 7 -6 15 -10 8 -3 15 -1 15 4 0 6 -7 10 -15 10 -8 0
-15 -2 -15 -4z"/>
<path d="M1600 160 c20 -13 33 -13 25 0 -3 6 -14 10 -23 10 -15 0 -15 -2 -2
-10z"/>
<path d="M1544 145 c-10 -8 -14 -14 -9 -15 15 0 40 18 34 24 -3 3 -14 -1 -25
-9z"/>
<path d="M1645 150 c-3 -5 -21 -10 -38 -11 -26 0 -28 -2 -12 -8 11 -5 28 -4
38 1 11 5 30 7 44 3 23 -5 24 -4 10 10 -18 17 -33 19 -42 5z"/>
<path d="M1428 143 c12 -2 30 -2 40 0 9 3 -1 5 -23 4 -22 0 -30 -2 -17 -4z"/>
</g>
</svg>
